# Blender 4.0.2
# www.blender.org
mtllib empty_landscape.mtl
o Plane
v -50.000008 0.000003 50.000008
v 50.000008 -0.000001 50.000008
v -50.000008 0.000000 -50.000008
v 50.000008 -0.000006 -50.000008
v -50.000000 -0.375099 -43.750000
v -50.000000 0.000001 -37.500004
v -50.000000 -0.019189 -31.250000
v -50.000000 0.000000 -24.999998
v -50.000000 0.179406 -18.750004
v -50.000000 -0.000001 -12.499997
v -50.000008 -0.877877 -6.250001
v -50.000008 0.000001 0.000000
v -50.000008 -0.270079 6.250001
v -50.000000 -0.000001 12.499997
v -50.000000 0.824698 18.750004
v -50.000008 0.000000 25.000006
v -50.000000 0.839196 31.250000
v -50.000000 0.000000 37.500004
v -50.000008 -1.469764 43.750008
v -43.750000 1.752510 50.000000
v -37.500008 0.000001 50.000008
v -31.250006 -2.164686 50.000008
v -24.999998 0.000001 50.000000
v -18.750006 1.012537 50.000008
v -12.500002 -0.000001 50.000008
v -6.249997 -0.134126 50.000000
v 0.000000 0.000003 50.000008
v 6.249997 -0.651702 50.000000
v 12.500002 0.000004 50.000008
v 18.750006 0.501861 50.000008
v 24.999998 -0.000000 50.000000
v 31.250006 -0.358467 50.000008
v 37.500008 0.000001 50.000008
v 43.750000 0.353356 50.000000
v 50.000008 -0.399172 43.750004
v 50.000000 -0.000001 37.500004
v 50.000000 0.936051 31.250000
v 50.000008 0.000000 25.000000
v 50.000000 -0.057372 18.750004
v 50.000000 0.000001 12.499997
v 50.000000 -0.848389 6.249997
v 50.000008 -0.000001 0.000000
v 50.000008 1.591267 -6.250001
v 50.000008 0.000001 -12.500002
v 50.000008 -1.773911 -18.750002
v 50.000008 0.000003 -25.000000
v 50.000008 1.646081 -31.250006
v 50.000000 -0.000001 -37.500004
v 50.000000 0.798418 -43.750004
v 43.750004 -0.158845 -50.000008
v 37.500004 -0.000001 -50.000000
v 31.250000 0.217744 -50.000000
v 25.000000 0.000000 -50.000008
v 18.750004 -0.548212 -50.000000
v 12.499997 -0.000001 -50.000000
v 6.249997 1.415826 -50.000000
v 0.000000 0.000002 -50.000008
v -6.250001 -1.902388 -50.000008
v -12.500002 0.000000 -50.000008
v -18.750002 1.115684 -50.000008
v -25.000000 -0.000002 -50.000008
v -31.250006 -0.696526 -50.000008
v -37.500004 0.000001 -50.000000
v -43.750004 0.212860 -50.000000
v -43.750000 -0.488033 43.750000
v -37.500004 -1.798552 43.750004
v -31.250000 -2.500000 43.750000
v -25.000000 -0.848389 43.750000
v -18.750004 0.013791 43.750008
v -12.500003 0.521697 43.750004
v -6.250000 0.315152 43.750000
v 0.000001 -0.632325 43.750000
v 6.249999 -2.030772 43.750000
v 12.500003 -1.603010 43.750004
v 18.750002 -0.868549 43.750008
v 24.999998 -0.287628 43.750000
v 31.250000 -1.109563 43.750008
v 37.500000 -2.035255 43.750000
v 43.750000 -0.577354 43.750000
v -43.750000 0.539742 37.500000
v -37.500008 -0.000002 37.500008
v -31.250000 -0.235291 37.500008
v -25.000000 0.000000 37.500000
v -18.750006 -0.658264 37.500008
v -12.500002 -0.000001 37.500008
v -6.250000 0.875053 37.500004
v 0.000000 0.000002 37.500008
v 6.250000 -1.174507 37.500004
v 12.500002 -0.000002 37.500008
v 18.750002 -0.348321 37.500008
v 25.000004 0.000001 37.500004
v 31.250000 0.462226 37.500008
v 37.500004 -0.000001 37.500004
v 43.750004 0.926358 37.500004
v -43.750008 1.363291 31.250006
v -37.500008 1.703757 31.250000
v -31.250006 0.740056 31.250006
v -25.000000 1.591264 31.250000
v -18.750004 -0.183220 31.250004
v -12.500003 -0.974084 31.250006
v -6.249998 0.225830 31.250006
v 0.000000 0.341453 31.250004
v 6.249998 0.790861 31.250006
v 12.500002 1.948551 31.250006
v 18.750002 0.744074 31.250006
v 25.000000 -0.145226 31.250000
v 31.250000 1.001570 31.250006
v 37.500008 2.071805 31.250000
v 43.750000 2.330246 31.250000
v -43.750000 -0.356103 25.000000
v -37.500000 0.000000 25.000000
v -31.250006 -1.579628 25.000000
v -25.000000 0.000000 25.000000
v -18.750000 -0.325356 25.000000
v -12.500003 -0.000002 25.000000
v -6.249999 0.209236 24.999998
v 0.000001 0.000000 25.000000
v 6.249998 0.466232 25.000000
v 12.500002 0.000001 25.000000
v 18.750000 0.033150 25.000000
v 24.999996 -0.000001 25.000000
v 31.250000 -0.385666 25.000000
v 37.500000 0.000000 25.000000
v 43.750000 0.726280 25.000000
v -43.750000 0.398540 18.749998
v -37.500008 -0.476531 18.750002
v -31.250000 -2.500000 18.749996
v -25.000000 -1.773911 18.750000
v -18.750004 -1.319466 18.750000
v -12.500000 -0.418854 18.750004
v -6.249999 -0.578938 18.750000
v 0.000000 -1.469765 18.750006
v 6.250001 -0.557308 18.749998
v 12.500000 -0.632325 18.750004
v 18.750004 -1.126767 18.750004
v 25.000006 -1.516686 18.750002
v 31.250004 -0.863630 18.750004
v 37.500008 -0.280074 18.750002
v 43.750008 -0.954989 18.750004
v -43.750000 0.805014 12.499998
v -37.500000 0.000000 12.499998
v -31.250000 -1.335869 12.499998
v -25.000000 -0.000001 12.500002
v -18.750000 -0.120811 12.499998
v -12.500003 -0.000001 12.500000
v -6.249999 0.521507 12.500002
v 0.000000 0.000000 12.499997
v 6.249999 0.521240 12.500000
v 12.500002 0.000000 12.500002
v 18.750004 -0.137671 12.500002
v 25.000000 -0.000001 12.500002
v 31.250000 0.455171 12.499998
v 37.500008 -0.000003 12.500002
v 43.750000 -2.298813 12.499998
v -43.750000 0.530491 6.249999
v -37.500004 0.672646 6.250000
v -31.250006 0.827483 6.250001
v -25.000000 1.646079 6.249998
v -18.750000 0.512009 6.250000
v -12.500003 0.614509 6.250001
v -6.250001 1.572934 6.250001
v 0.000000 0.839196 6.250002
v 6.249999 -0.174979 6.250002
v 12.500000 0.341454 6.250000
v 18.749998 1.355630 6.250000
v 24.999998 0.539933 6.249997
v 31.250000 -0.028935 6.249999
v 37.500004 -0.119096 6.250001
v 43.750000 -1.473808 6.249999
v -43.750004 -0.146601 -0.000001
v -37.500008 0.000001 0.000001
v -31.250006 0.672109 -0.000000
v -25.000000 0.000001 0.000001
v -18.750004 -1.115760 0.000001
v -12.500000 0.000000 0.000000
v -6.250002 1.170655 0.000001
v 0.000001 -0.000001 0.000001
v 6.250001 -2.051849 0.000001
v 12.500000 0.000000 0.000001
v 18.750006 1.967545 0.000000
v 25.000000 -0.000001 0.000001
v 31.250004 -0.933876 0.000001
v 37.500008 0.000000 0.000001
v 43.750004 0.318680 0.000001
v -43.750000 -0.931625 -6.250000
v -37.500000 -1.735115 -6.250001
v -31.250000 0.091572 -6.250000
v -24.999998 0.798416 -6.249999
v -18.749998 0.788553 -6.249997
v -12.500003 1.494218 -6.249999
v -6.250000 1.642627 -6.250001
v 0.000000 0.824699 -6.250000
v 6.250000 -1.413536 -6.250001
v 12.500002 -1.469765 -6.249999
v 18.750000 0.256615 -6.249999
v 24.999998 0.088882 -6.249999
v 31.250000 -0.953122 -6.250001
v 37.500004 -1.198197 -6.250000
v 43.750000 -0.141772 -6.249999
v -43.750000 0.896340 -12.500000
v -37.500004 -0.000000 -12.500000
v -31.250000 0.447731 -12.499998
v -24.999998 -0.000001 -12.500003
v -18.750004 0.400236 -12.500000
v -12.500003 0.000001 -12.499999
v -6.250000 -0.204316 -12.500002
v 0.000001 -0.000001 -12.500000
v 6.249999 -0.130157 -12.500000
v 12.500000 0.000000 -12.500002
v 18.750004 -0.073433 -12.500000
v 25.000000 0.000001 -12.500003
v 31.250004 0.136947 -12.500000
v 37.500008 0.000002 -12.500002
v 43.750004 -0.995294 -12.500003
v -43.750000 0.512371 -18.749998
v -37.500004 0.348092 -18.750004
v -31.250000 0.225964 -18.750002
v -25.000000 -1.952973 -18.750000
v -18.750004 -0.771257 -18.750004
v -12.500002 -0.062599 -18.750004
v -6.249997 -0.201987 -18.750000
v -0.000001 -0.270079 -18.750004
v 6.250000 0.509683 -18.749998
v 12.500003 0.839195 -18.750004
v 18.750004 0.187606 -18.750004
v 25.000004 0.718040 -18.750004
v 31.250004 1.572075 -18.750000
v 37.500000 1.481438 -18.749998
v 43.750008 -1.195776 -18.750002
v -43.750000 -0.399093 -24.999998
v -37.500000 0.000000 -25.000000
v -31.250006 1.609081 -25.000000
v -24.999998 -0.000001 -25.000000
v -18.749998 0.072822 -25.000000
v -12.500003 0.000001 -25.000000
v -6.249999 0.133018 -25.000000
v 0.000000 0.000000 -25.000000
v 6.249999 0.580406 -25.000000
v 12.500002 -0.000001 -25.000000
v 18.750000 -1.108590 -25.000000
v 24.999998 0.000000 -25.000000
v 31.250004 0.807723 -25.000004
v 37.500000 -0.000000 -24.999996
v 43.750000 -1.103782 -24.999998
v -43.750004 -0.397720 -31.250004
v -37.500008 -0.260126 -31.250000
v -31.250000 2.237187 -31.250000
v -25.000000 1.572572 -31.250006
v -18.749998 -0.334111 -31.250000
v -12.500002 -0.995941 -31.250004
v -6.250003 -1.100254 -31.250000
v 0.000000 -0.877876 -31.250004
v 6.250000 1.033611 -31.250000
v 12.499998 0.824699 -31.250000
v 18.750004 -0.230847 -31.250004
v 24.999998 -0.952148 -31.250000
v 31.250000 -0.222301 -31.250000
v 37.500008 0.197640 -31.250000
v 43.750000 0.641156 -31.250000
v -43.750000 -0.117035 -37.500000
v -37.500008 0.000001 -37.500008
v -31.250000 1.552845 -37.500008
v -25.000000 0.000000 -37.500000
v -18.750006 -1.317672 -37.500008
v -12.500002 -0.000001 -37.500008
v -6.250000 -0.459710 -37.500004
v 0.000000 0.000000 -37.500000
v 6.250000 1.539993 -37.500004
v 12.500002 -0.000001 -37.500004
v 18.750004 0.774348 -37.500008
v 25.000004 -0.000002 -37.500004
v 31.250000 -0.497817 -37.500008
v 37.500000 0.000000 -37.500000
v 43.750004 0.542375 -37.500004
v -43.750000 -0.018902 -43.750000
v -37.500000 0.241470 -43.750000
v -31.250000 0.760612 -43.750000
v -24.999998 0.423431 -43.750000
v -18.749998 0.032729 -43.750000
v -12.500000 -0.155982 -43.750000
v -6.250000 -1.169338 -43.750000
v 0.000000 0.179405 -43.750004
v 6.250000 1.432572 -43.750000
v 12.500000 -0.270080 -43.750000
v 18.749998 0.297107 -43.750000
v 24.999998 0.638161 -43.750000
v 31.250000 0.282899 -43.750000
v 37.500000 0.207710 -43.750000
v 43.750000 0.694828 -43.750000
vn 0.1429 0.9654 0.2183
vn 0.0711 0.9486 0.3084
vn -0.1449 0.9601 0.2391
vn -0.0163 0.9998 0.0141
vn -0.0925 0.9912 -0.0947
vn -0.0534 0.9986 0.0031
vn 0.1436 0.9852 0.0940
vn 0.2003 0.9729 0.1159
vn -0.1248 0.9735 0.1915
vn -0.0304 0.9854 0.1674
vn -0.0740 0.9952 0.0643
vn 0.0285 0.9887 0.1471
vn 0.1061 0.9554 0.2757
vn -0.1805 0.9464 0.2679
vn 0.0156 0.9800 0.1982
vn 0.0934 0.9735 0.2087
vn -0.0848 0.9760 0.2004
vn 0.1886 0.9689 0.1602
vn 0.0106 0.9991 -0.0399
vn -0.1624 0.9785 -0.1271
vn 0.0606 0.9979 -0.0246
vn 0.0570 0.9818 0.1812
vn -0.1753 0.9395 0.2942
vn 0.1198 0.9647 0.2347
vn 0.0431 0.9962 0.0755
vn -0.1276 0.9913 0.0313
vn -0.0476 0.9778 0.2042
vn -0.0909 0.9595 0.2668
vn -0.0537 0.9631 -0.2637
vn 0.1901 0.9345 -0.3008
vn -0.1825 0.9384 -0.2936
vn 0.1641 0.9771 -0.1355
vn 0.0371 0.9971 0.0664
vn -0.1117 0.9908 0.0759
vn 0.0075 0.9996 -0.0286
vn -0.0730 0.9959 -0.0531
vn -0.0543 0.9824 -0.1787
vn 0.0913 0.9740 -0.2072
vn 0.0735 0.9963 -0.0451
vn -0.0605 0.9933 -0.0987
vn -0.1116 0.9578 -0.2650
vn -0.0754 0.9567 -0.2813
vn 0.0415 0.9989 0.0222
vn 0.2754 0.9554 -0.1068
vn -0.1775 0.9620 -0.2074
vn -0.0101 0.9763 -0.2162
vn -0.0970 0.9890 -0.1118
vn -0.0039 0.9954 -0.0961
vn 0.0863 0.9804 -0.1771
vn -0.1075 0.9750 -0.1945
vn 0.0429 0.9904 -0.1312
vn 0.0365 0.9892 -0.1418
vn 0.0331 0.9773 -0.2093
vn -0.0211 0.9873 -0.1575
vn -0.0772 0.9952 -0.0604
vn -0.0041 0.9879 -0.1550
vn 0.1329 0.9887 0.0698
vn 0.2575 0.9581 0.1257
vn -0.1585 0.9612 0.2259
vn -0.0260 0.9725 0.2313
vn -0.0808 0.9885 0.1279
vn -0.0287 0.9923 0.1206
vn 0.1100 0.9736 0.2002
vn -0.1117 0.9737 0.1985
vn 0.0472 0.9897 0.1355
vn 0.0501 0.9904 0.1285
vn 0.0198 0.9803 0.1965
vn -0.0861 0.9716 0.2204
vn -0.0102 0.9919 0.1269
vn 0.2306 0.9695 -0.0825
vn 0.0529 0.9981 0.0318
vn 0.0918 0.9711 0.2203
vn -0.1627 0.9438 0.2876
vn 0.0983 0.9790 0.1785
vn -0.0178 0.9949 0.0993
vn -0.1166 0.9845 0.1312
vn 0.0988 0.9839 0.1488
vn 0.0394 0.9992 0.0114
vn 0.0004 0.9996 -0.0284
vn -0.0692 0.9870 0.1449
vn 0.0535 0.9856 0.1603
vn 0.0091 0.9999 0.0045
vn 0.0435 0.9979 -0.0482
vn 0.2801 0.9584 0.0541
vn -0.0230 0.9940 -0.1073
vn -0.0659 0.9956 -0.0660
vn -0.0116 0.9897 -0.1426
vn 0.1715 0.9530 -0.2496
vn -0.0955 0.9798 -0.1758
vn -0.1674 0.9826 -0.0799
vn 0.1499 0.9839 -0.0977
vn 0.2331 0.9503 -0.2065
vn -0.1983 0.9651 -0.1713
vn -0.2320 0.9725 0.0210
vn 0.2173 0.9761 0.0056
vn 0.1186 0.9864 -0.1140
vn -0.0672 0.9958 -0.0626
vn 0.0817 0.9852 0.1507
vn 0.0514 0.9790 -0.1974
vn -0.1929 0.9648 -0.1787
vn -0.0028 0.9998 0.0174
vn 0.0877 0.9736 0.2105
vn -0.1392 0.9556 0.2598
vn -0.1037 0.9825 0.1545
vn 0.1563 0.9824 0.1019
vn 0.3226 0.9401 0.1100
vn -0.1573 0.9854 -0.0655
vn -0.2753 0.9317 -0.2371
vn 0.1670 0.9778 -0.1269
vn 0.1561 0.9877 0.0055
vn -0.0548 0.9938 -0.0968
vn -0.1084 0.9855 -0.1308
vn 0.1297 0.9536 0.2718
vn -0.1766 0.9708 0.1624
vn -0.0207 0.9992 -0.0354
vn -0.0311 0.9950 -0.0945
vn -0.0242 0.9886 -0.1489
vn 0.0043 0.9661 -0.2582
vn 0.0479 0.9768 -0.2088
vn 0.1860 0.9819 0.0360
vn -0.0058 0.9766 0.2151
vn -0.1306 0.9873 0.0900
vn 0.0075 0.9994 -0.0335
vn 0.0720 0.9942 0.0796
vn 0.0300 0.9832 0.1800
vn -0.0049 0.9996 0.0276
vn 0.0845 0.9964 -0.0029
vn -0.0260 0.9996 0.0101
vn 0.2027 0.9647 -0.1678
vn -0.1219 0.9629 -0.2407
vn -0.0245 0.9949 -0.0982
vn 0.0275 0.9996 -0.0048
vn -0.0109 0.9997 -0.0214
vn -0.0519 0.9982 0.0295
vn -0.0365 0.9924 0.1174
vn 0.0577 0.9945 0.0875
vn -0.0481 0.9958 0.0780
vn -0.0779 0.9825 0.1692
vn 0.0177 0.9737 0.2272
vn 0.2805 0.9548 0.0978
vn -0.0187 0.9948 -0.1002
vn -0.1177 0.9897 0.0819
vn 0.2810 0.9273 0.2475
vn -0.0975 0.9712 0.2173
vn -0.0507 0.9961 0.0723
vn 0.0005 0.9995 0.0318
vn 0.0161 0.9987 0.0483
vn -0.1081 0.9938 0.0271
vn 0.0200 0.9979 -0.0613
vn 0.1375 0.9764 -0.1668
vn -0.1284 0.9791 -0.1578
vn -0.1309 0.9845 -0.1168
vn 0.0706 0.9818 -0.1764
vn 0.2879 0.9518 -0.1058
vn -0.0429 0.9989 -0.0207
vn -0.3120 0.9497 0.0280
vn 0.1763 0.9694 0.1707
vn 0.1445 0.9852 0.0919
vn 0.0583 0.9921 -0.1113
vn -0.0023 0.9845 -0.1756
vn -0.0070 0.9860 -0.1665
vn -0.1954 0.9802 -0.0333
vn 0.0627 0.9929 0.1015
vn 0.1691 0.9766 0.1330
vn -0.0310 0.9995 -0.0059
vn -0.1206 0.9805 -0.1555
vn 0.0309 0.9973 -0.0664
vn 0.0521 0.9868 0.1534
vn -0.0203 0.9989 0.0432
vn -0.3081 0.9508 -0.0323
vn 0.1720 0.9694 -0.1750
vn 0.2450 0.9499 -0.1942
vn -0.0524 0.9986 0.0010
vn 0.0447 0.9905 0.1297
vn -0.0541 0.9912 0.1204
vn -0.2647 0.9585 0.1061
vn 0.1385 0.9900 -0.0252
vn 0.0225 0.9996 0.0144
vn 0.1174 0.9811 0.1536
vn -0.0185 0.9984 0.0540
vn -0.0732 0.9966 -0.0377
vn -0.0786 0.9966 -0.0236
vn -0.0302 0.9992 0.0271
vn -0.1634 0.9856 -0.0434
vn 0.1494 0.9883 -0.0292
vn 0.1341 0.9811 0.1392
vn -0.0895 0.9915 0.0947
vn 0.1168 0.9908 -0.0686
vn -0.1431 0.9888 -0.0419
vn -0.2181 0.9759 0.0056
vn 0.2510 0.9675 -0.0292
vn -0.1065 0.9925 -0.0593
vn 0.0346 0.9993 0.0129
vn 0.0677 0.9913 0.1125
vn -0.0337 0.9963 0.0788
vn -0.0820 0.9962 0.0287
vn -0.2052 0.9383 -0.2785
vn 0.2271 0.9267 -0.2994
vn 0.2205 0.9615 -0.1641
vn -0.2908 0.9525 -0.0902
vn -0.1468 0.9785 -0.1446
vn 0.0403 0.9985 -0.0381
vn 0.0272 0.9966 0.0774
vn 0.0649 0.9978 -0.0146
vn 0.1598 0.9746 -0.1568
vn -0.0837 0.9693 -0.2312
vn -0.0958 0.9684 -0.2304
vn -0.0063 0.9913 -0.1315
vn 0.0937 0.9922 -0.0824
vn 0.0442 0.9751 -0.2174
vn -0.1396 0.9635 -0.2286
vn 0.0139 0.9943 -0.1058
vn 0.0591 0.9869 0.1502
vn 0.1795 0.9670 0.1810
vn 0.1640 0.9667 -0.1964
vn -0.0136 0.9904 -0.1378
vn -0.2465 0.9640 -0.0992
vn -0.2278 0.9737 -0.0018
vn -0.0240 0.9781 0.2066
vn -0.1120 0.9897 0.0895
vn -0.2095 0.9596 -0.1877
vn -0.0329 0.9872 -0.1559
vn -0.0416 0.9882 0.1475
vn -0.1607 0.9526 0.2584
vn -0.0366 0.9897 -0.1382
vn 0.0350 0.9965 0.0758
vn -0.0208 0.9912 -0.1310
vn -0.0262 0.9961 -0.0846
vn 0.0234 0.9995 -0.0218
vn 0.0110 0.9984 -0.0562
vn -0.0705 0.9906 -0.1176
vn -0.0015 0.9989 -0.0460
vn 0.2420 0.9701 0.0197
vn -0.2088 0.9778 -0.0153
vn -0.2511 0.9654 -0.0705
vn 0.2269 0.9729 -0.0449
vn 0.1033 0.9898 0.0981
vn -0.0578 0.9969 0.0526
vn -0.0284 0.9885 -0.1487
vn 0.0141 0.9908 -0.1346
vn -0.0038 1.0000 -0.0008
vn -0.0454 0.9978 0.0484
vn -0.0191 0.9996 -0.0221
vn 0.0396 0.9989 0.0240
vn 0.0621 0.9981 -0.0014
vn 0.0053 0.9962 -0.0869
vn -0.0979 0.9951 -0.0163
vn -0.0657 0.9752 0.2111
vn 0.0159 0.9911 -0.1319
vn -0.0522 0.9981 -0.0325
vn -0.1273 0.9909 -0.0432
vn -0.0303 0.9990 -0.0334
vn 0.0620 0.9902 0.1251
vn -0.0132 0.9796 -0.2005
vn -0.0841 0.9878 0.1314
vn -0.1185 0.9737 0.1945
vt 0.062500 0.062500
vt 0.125000 0.062500
vt 0.125000 0.125000
vt 0.062500 0.125000
vt 0.187500 0.062500
vt 0.187500 0.125000
vt 0.250000 0.062500
vt 0.250000 0.125000
vt 0.312500 0.062500
vt 0.312500 0.125000
vt 0.375000 0.062500
vt 0.375000 0.125000
vt 0.437500 0.062500
vt 0.437500 0.125000
vt 0.500000 0.062500
vt 0.500000 0.125000
vt 0.562500 0.062500
vt 0.562500 0.125000
vt 0.625000 0.062500
vt 0.625000 0.125000
vt 0.687500 0.062500
vt 0.687500 0.125000
vt 0.750000 0.062500
vt 0.750000 0.125000
vt 0.812500 0.062500
vt 0.812500 0.125000
vt 0.875000 0.062500
vt 0.875000 0.125000
vt 0.937500 0.062500
vt 0.937500 0.125000
vt 0.125000 0.187500
vt 0.062500 0.187500
vt 0.187500 0.187500
vt 0.250000 0.187500
vt 0.312500 0.187500
vt 0.375000 0.187500
vt 0.437500 0.187500
vt 0.500000 0.187500
vt 0.562500 0.187500
vt 0.625000 0.187500
vt 0.687500 0.187500
vt 0.750000 0.187500
vt 0.812500 0.187500
vt 0.875000 0.187500
vt 0.937500 0.187500
vt 0.125000 0.250000
vt 0.062500 0.250000
vt 0.187500 0.250000
vt 0.250000 0.250000
vt 0.312500 0.250000
vt 0.375000 0.250000
vt 0.437500 0.250000
vt 0.500000 0.250000
vt 0.562500 0.250000
vt 0.625000 0.250000
vt 0.687500 0.250000
vt 0.750000 0.250000
vt 0.812500 0.250000
vt 0.875000 0.250000
vt 0.937500 0.250000
vt 0.125000 0.312500
vt 0.062500 0.312500
vt 0.187500 0.312500
vt 0.250000 0.312500
vt 0.312500 0.312500
vt 0.375000 0.312500
vt 0.437500 0.312500
vt 0.500000 0.312500
vt 0.562500 0.312500
vt 0.625000 0.312500
vt 0.687500 0.312500
vt 0.750000 0.312500
vt 0.812500 0.312500
vt 0.875000 0.312500
vt 0.937500 0.312500
vt 0.125000 0.375000
vt 0.062500 0.375000
vt 0.187500 0.375000
vt 0.250000 0.375000
vt 0.312500 0.375000
vt 0.375000 0.375000
vt 0.437500 0.375000
vt 0.500000 0.375000
vt 0.562500 0.375000
vt 0.625000 0.375000
vt 0.687500 0.375000
vt 0.750000 0.375000
vt 0.812500 0.375000
vt 0.875000 0.375000
vt 0.937500 0.375000
vt 0.125000 0.437500
vt 0.062500 0.437500
vt 0.187500 0.437500
vt 0.250000 0.437500
vt 0.312500 0.437500
vt 0.375000 0.437500
vt 0.437500 0.437500
vt 0.500000 0.437500
vt 0.562500 0.437500
vt 0.625000 0.437500
vt 0.687500 0.437500
vt 0.750000 0.437500
vt 0.812500 0.437500
vt 0.875000 0.437500
vt 0.937500 0.437500
vt 0.125000 0.500000
vt 0.062500 0.500000
vt 0.187500 0.500000
vt 0.250000 0.500000
vt 0.312500 0.500000
vt 0.375000 0.500000
vt 0.437500 0.500000
vt 0.500000 0.500000
vt 0.562500 0.500000
vt 0.625000 0.500000
vt 0.687500 0.500000
vt 0.750000 0.500000
vt 0.812500 0.500000
vt 0.875000 0.500000
vt 0.937500 0.500000
vt 0.125000 0.562500
vt 0.062500 0.562500
vt 0.187500 0.562500
vt 0.250000 0.562500
vt 0.312500 0.562500
vt 0.375000 0.562500
vt 0.437500 0.562500
vt 0.500000 0.562500
vt 0.562500 0.562500
vt 0.625000 0.562500
vt 0.687500 0.562500
vt 0.750000 0.562500
vt 0.812500 0.562500
vt 0.875000 0.562500
vt 0.937500 0.562500
vt 0.125000 0.625000
vt 0.062500 0.625000
vt 0.187500 0.625000
vt 0.250000 0.625000
vt 0.312500 0.625000
vt 0.375000 0.625000
vt 0.437500 0.625000
vt 0.500000 0.625000
vt 0.562500 0.625000
vt 0.625000 0.625000
vt 0.687500 0.625000
vt 0.750000 0.625000
vt 0.812500 0.625000
vt 0.875000 0.625000
vt 0.937500 0.625000
vt 0.125000 0.687500
vt 0.062500 0.687500
vt 0.187500 0.687500
vt 0.250000 0.687500
vt 0.312500 0.687500
vt 0.375000 0.687500
vt 0.437500 0.687500
vt 0.500000 0.687500
vt 0.562500 0.687500
vt 0.625000 0.687500
vt 0.687500 0.687500
vt 0.750000 0.687500
vt 0.812500 0.687500
vt 0.875000 0.687500
vt 0.937500 0.687500
vt 0.125000 0.750000
vt 0.062500 0.750000
vt 0.187500 0.750000
vt 0.250000 0.750000
vt 0.312500 0.750000
vt 0.375000 0.750000
vt 0.437500 0.750000
vt 0.500000 0.750000
vt 0.562500 0.750000
vt 0.625000 0.750000
vt 0.687500 0.750000
vt 0.750000 0.750000
vt 0.812500 0.750000
vt 0.875000 0.750000
vt 0.937500 0.750000
vt 0.125000 0.812500
vt 0.062500 0.812500
vt 0.187500 0.812500
vt 0.250000 0.812500
vt 0.312500 0.812500
vt 0.375000 0.812500
vt 0.437500 0.812500
vt 0.500000 0.812500
vt 0.562500 0.812500
vt 0.625000 0.812500
vt 0.687500 0.812500
vt 0.750000 0.812500
vt 0.812500 0.812500
vt 0.875000 0.812500
vt 0.937500 0.812500
vt 0.125000 0.875000
vt 0.062500 0.875000
vt 0.187500 0.875000
vt 0.250000 0.875000
vt 0.312500 0.875000
vt 0.375000 0.875000
vt 0.437500 0.875000
vt 0.500000 0.875000
vt 0.562500 0.875000
vt 0.625000 0.875000
vt 0.687500 0.875000
vt 0.750000 0.875000
vt 0.812500 0.875000
vt 0.875000 0.875000
vt 0.937500 0.875000
vt 0.125000 0.937500
vt 0.062500 0.937500
vt 0.187500 0.937500
vt 0.250000 0.937500
vt 0.312500 0.937500
vt 0.375000 0.937500
vt 0.437500 0.937500
vt 0.500000 0.937500
vt 0.562500 0.937500
vt 0.625000 0.937500
vt 0.687500 0.937500
vt 0.750000 0.937500
vt 0.812500 0.937500
vt 0.875000 0.937500
vt 0.937500 0.937500
vt 0.000000 0.000000
vt 0.062500 0.000000
vt 0.000000 0.062500
vt 0.125000 0.000000
vt 0.187500 0.000000
vt 0.250000 0.000000
vt 0.312500 0.000000
vt 0.375000 0.000000
vt 0.437500 0.000000
vt 0.500000 0.000000
vt 0.562500 0.000000
vt 0.625000 0.000000
vt 0.687500 0.000000
vt 0.750000 0.000000
vt 0.812500 0.000000
vt 0.875000 0.000000
vt 0.937500 0.000000
vt 1.000000 0.000000
vt 1.000000 0.062500
vt 1.000000 0.125000
vt 1.000000 0.187500
vt 1.000000 0.250000
vt 1.000000 0.312500
vt 1.000000 0.375000
vt 1.000000 0.437500
vt 1.000000 0.500000
vt 1.000000 0.562500
vt 1.000000 0.625000
vt 1.000000 0.687500
vt 1.000000 0.750000
vt 1.000000 0.812500
vt 1.000000 0.875000
vt 1.000000 0.937500
vt 1.000000 1.000000
vt 0.937500 1.000000
vt 0.875000 1.000000
vt 0.812500 1.000000
vt 0.750000 1.000000
vt 0.687500 1.000000
vt 0.625000 1.000000
vt 0.562500 1.000000
vt 0.500000 1.000000
vt 0.437500 1.000000
vt 0.375000 1.000000
vt 0.312500 1.000000
vt 0.250000 1.000000
vt 0.187500 1.000000
vt 0.125000 1.000000
vt 0.062500 1.000000
vt 0.000000 0.937500
vt 0.000000 1.000000
vt 0.000000 0.875000
vt 0.000000 0.812500
vt 0.000000 0.750000
vt 0.000000 0.687500
vt 0.000000 0.625000
vt 0.000000 0.562500
vt 0.000000 0.500000
vt 0.000000 0.437500
vt 0.000000 0.375000
vt 0.000000 0.312500
vt 0.000000 0.250000
vt 0.000000 0.187500
vt 0.000000 0.125000
s 0
f 65/1/1 66/2/1 81/3/1 80/4/1
f 66/2/2 67/5/2 82/6/2 81/3/2
f 67/5/3 68/7/3 83/8/3 82/6/3
f 68/7/4 69/9/4 84/10/4 83/8/4
f 69/9/5 70/11/5 85/12/5 84/10/5
f 70/11/6 71/13/6 86/14/6 85/12/6
f 71/13/7 72/15/7 87/16/7 86/14/7
f 72/15/8 73/17/8 88/18/8 87/16/8
f 73/17/9 74/19/9 89/20/9 88/18/9
f 74/19/10 75/21/10 90/22/10 89/20/10
f 75/21/11 76/23/11 91/24/11 90/22/11
f 76/23/12 77/25/12 92/26/12 91/24/12
f 77/25/13 78/27/13 93/28/13 92/26/13
f 78/27/14 79/29/14 94/30/14 93/28/14
f 80/4/15 81/3/15 96/31/15 95/32/15
f 81/3/16 82/6/16 97/33/16 96/31/16
f 82/6/17 83/8/17 98/34/17 97/33/17
f 83/8/18 84/10/18 99/35/18 98/34/18
f 84/10/19 85/12/19 100/36/19 99/35/19
f 85/12/20 86/14/20 101/37/20 100/36/20
f 86/14/21 87/16/21 102/38/21 101/37/21
f 87/16/22 88/18/22 103/39/22 102/38/22
f 88/18/23 89/20/23 104/40/23 103/39/23
f 89/20/24 90/22/24 105/41/24 104/40/24
f 90/22/25 91/24/25 106/42/25 105/41/25
f 91/24/26 92/26/26 107/43/26 106/42/26
f 92/26/27 93/28/27 108/44/27 107/43/27
f 93/28/28 94/30/28 109/45/28 108/44/28
f 95/32/29 96/31/29 111/46/29 110/47/29
f 96/31/30 97/33/30 112/48/30 111/46/30
f 97/33/31 98/34/31 113/49/31 112/48/31
f 98/34/32 99/35/32 114/50/32 113/49/32
f 99/35/33 100/36/33 115/51/33 114/50/33
f 100/36/34 101/37/34 116/52/34 115/51/34
f 101/37/35 102/38/35 117/53/35 116/52/35
f 102/38/36 103/39/36 118/54/36 117/53/36
f 103/39/37 104/40/37 119/55/37 118/54/37
f 104/40/38 105/41/38 120/56/38 119/55/38
f 105/41/39 106/42/39 121/57/39 120/56/39
f 106/42/40 107/43/40 122/58/40 121/57/40
f 107/43/41 108/44/41 123/59/41 122/58/41
f 108/44/42 109/45/42 124/60/42 123/59/42
f 110/47/43 111/46/43 126/61/43 125/62/43
f 111/46/44 112/48/44 127/63/44 126/61/44
f 112/48/45 113/49/45 128/64/45 127/63/45
f 113/49/46 114/50/46 129/65/46 128/64/46
f 114/50/47 115/51/47 130/66/47 129/65/47
f 115/51/48 116/52/48 131/67/48 130/66/48
f 116/52/49 117/53/49 132/68/49 131/67/49
f 117/53/50 118/54/50 133/69/50 132/68/50
f 118/54/51 119/55/51 134/70/51 133/69/51
f 119/55/52 120/56/52 135/71/52 134/70/52
f 120/56/53 121/57/53 136/72/53 135/71/53
f 121/57/54 122/58/54 137/73/54 136/72/54
f 122/58/55 123/59/55 138/74/55 137/73/55
f 123/59/56 124/60/56 139/75/56 138/74/56
f 125/62/57 126/61/57 141/76/57 140/77/57
f 126/61/58 127/63/58 142/78/58 141/76/58
f 127/63/59 128/64/59 143/79/59 142/78/59
f 128/64/60 129/65/60 144/80/60 143/79/60
f 129/65/61 130/66/61 145/81/61 144/80/61
f 130/66/62 131/67/62 146/82/62 145/81/62
f 131/67/63 132/68/63 147/83/63 146/82/63
f 132/68/64 133/69/64 148/84/64 147/83/64
f 133/69/65 134/70/65 149/85/65 148/84/65
f 134/70/66 135/71/66 150/86/66 149/85/66
f 135/71/67 136/72/67 151/87/67 150/86/67
f 136/72/68 137/73/68 152/88/68 151/87/68
f 137/73/69 138/74/69 153/89/69 152/88/69
f 138/74/70 139/75/70 154/90/70 153/89/70
f 140/77/71 141/76/71 156/91/71 155/92/71
f 141/76/72 142/78/72 157/93/72 156/91/72
f 142/78/73 143/79/73 158/94/73 157/93/73
f 143/79/74 144/80/74 159/95/74 158/94/74
f 144/80/75 145/81/75 160/96/75 159/95/75
f 145/81/76 146/82/76 161/97/76 160/96/76
f 146/82/77 147/83/77 162/98/77 161/97/77
f 147/83/78 148/84/78 163/99/78 162/98/78
f 148/84/79 149/85/79 164/100/79 163/99/79
f 149/85/80 150/86/80 165/101/80 164/100/80
f 150/86/81 151/87/81 166/102/81 165/101/81
f 151/87/82 152/88/82 167/103/82 166/102/82
f 152/88/83 153/89/83 168/104/83 167/103/83
f 153/89/84 154/90/84 169/105/84 168/104/84
f 155/92/85 156/91/85 171/106/85 170/107/85
f 156/91/86 157/93/86 172/108/86 171/106/86
f 157/93/87 158/94/87 173/109/87 172/108/87
f 158/94/88 159/95/88 174/110/88 173/109/88
f 159/95/89 160/96/89 175/111/89 174/110/89
f 160/96/90 161/97/90 176/112/90 175/111/90
f 161/97/91 162/98/91 177/113/91 176/112/91
f 162/98/92 163/99/92 178/114/92 177/113/92
f 163/99/93 164/100/93 179/115/93 178/114/93
f 164/100/94 165/101/94 180/116/94 179/115/94
f 165/101/95 166/102/95 181/117/95 180/116/95
f 166/102/96 167/103/96 182/118/96 181/117/96
f 167/103/97 168/104/97 183/119/97 182/118/97
f 168/104/98 169/105/98 184/120/98 183/119/98
f 170/107/99 171/106/99 186/121/99 185/122/99
f 171/106/100 172/108/100 187/123/100 186/121/100
f 172/108/101 173/109/101 188/124/101 187/123/101
f 173/109/102 174/110/102 189/125/102 188/124/102
f 174/110/103 175/111/103 190/126/103 189/125/103
f 175/111/104 176/112/104 191/127/104 190/126/104
f 176/112/105 177/113/105 192/128/105 191/127/105
f 177/113/106 178/114/106 193/129/106 192/128/106
f 178/114/107 179/115/107 194/130/107 193/129/107
f 179/115/108 180/116/108 195/131/108 194/130/108
f 180/116/109 181/117/109 196/132/109 195/131/109
f 181/117/110 182/118/110 197/133/110 196/132/110
f 182/118/111 183/119/111 198/134/111 197/133/111
f 183/119/112 184/120/112 199/135/112 198/134/112
f 185/122/113 186/121/113 201/136/113 200/137/113
f 186/121/114 187/123/114 202/138/114 201/136/114
f 187/123/115 188/124/115 203/139/115 202/138/115
f 188/124/116 189/125/116 204/140/116 203/139/116
f 189/125/117 190/126/117 205/141/117 204/140/117
f 190/126/118 191/127/118 206/142/118 205/141/118
f 191/127/119 192/128/119 207/143/119 206/142/119
f 192/128/120 193/129/120 208/144/120 207/143/120
f 193/129/121 194/130/121 209/145/121 208/144/121
f 194/130/122 195/131/122 210/146/122 209/145/122
f 195/131/123 196/132/123 211/147/123 210/146/123
f 196/132/124 197/133/124 212/148/124 211/147/124
f 197/133/125 198/134/125 213/149/125 212/148/125
f 198/134/126 199/135/126 214/150/126 213/149/126
f 200/137/127 201/136/127 216/151/127 215/152/127
f 201/136/128 202/138/128 217/153/128 216/151/128
f 202/138/129 203/139/129 218/154/129 217/153/129
f 203/139/130 204/140/130 219/155/130 218/154/130
f 204/140/131 205/141/131 220/156/131 219/155/131
f 205/141/132 206/142/132 221/157/132 220/156/132
f 206/142/133 207/143/133 222/158/133 221/157/133
f 207/143/134 208/144/134 223/159/134 222/158/134
f 208/144/135 209/145/135 224/160/135 223/159/135
f 209/145/136 210/146/136 225/161/136 224/160/136
f 210/146/137 211/147/137 226/162/137 225/161/137
f 211/147/138 212/148/138 227/163/138 226/162/138
f 212/148/139 213/149/139 228/164/139 227/163/139
f 213/149/140 214/150/140 229/165/140 228/164/140
f 215/152/141 216/151/141 231/166/141 230/167/141
f 216/151/142 217/153/142 232/168/142 231/166/142
f 217/153/143 218/154/143 233/169/143 232/168/143
f 218/154/144 219/155/144 234/170/144 233/169/144
f 219/155/145 220/156/145 235/171/145 234/170/145
f 220/156/146 221/157/146 236/172/146 235/171/146
f 221/157/147 222/158/147 237/173/147 236/172/147
f 222/158/148 223/159/148 238/174/148 237/173/148
f 223/159/149 224/160/149 239/175/149 238/174/149
f 224/160/150 225/161/150 240/176/150 239/175/150
f 225/161/151 226/162/151 241/177/151 240/176/151
f 226/162/152 227/163/152 242/178/152 241/177/152
f 227/163/153 228/164/153 243/179/153 242/178/153
f 228/164/154 229/165/154 244/180/154 243/179/154
f 230/167/155 231/166/155 246/181/155 245/182/155
f 231/166/156 232/168/156 247/183/156 246/181/156
f 232/168/157 233/169/157 248/184/157 247/183/157
f 233/169/158 234/170/158 249/185/158 248/184/158
f 234/170/159 235/171/159 250/186/159 249/185/159
f 235/171/160 236/172/160 251/187/160 250/186/160
f 236/172/161 237/173/161 252/188/161 251/187/161
f 237/173/162 238/174/162 253/189/162 252/188/162
f 238/174/163 239/175/163 254/190/163 253/189/163
f 239/175/164 240/176/164 255/191/164 254/190/164
f 240/176/165 241/177/165 256/192/165 255/191/165
f 241/177/166 242/178/166 257/193/166 256/192/166
f 242/178/167 243/179/167 258/194/167 257/193/167
f 243/179/168 244/180/168 259/195/168 258/194/168
f 245/182/169 246/181/169 261/196/169 260/197/169
f 246/181/170 247/183/170 262/198/170 261/196/170
f 247/183/171 248/184/171 263/199/171 262/198/171
f 248/184/172 249/185/172 264/200/172 263/199/172
f 249/185/173 250/186/173 265/201/173 264/200/173
f 250/186/174 251/187/174 266/202/174 265/201/174
f 251/187/175 252/188/175 267/203/175 266/202/175
f 252/188/176 253/189/176 268/204/176 267/203/176
f 253/189/177 254/190/177 269/205/177 268/204/177
f 254/190/178 255/191/178 270/206/178 269/205/178
f 255/191/179 256/192/179 271/207/179 270/206/179
f 256/192/180 257/193/180 272/208/180 271/207/180
f 257/193/181 258/194/181 273/209/181 272/208/181
f 258/194/182 259/195/182 274/210/182 273/209/182
f 260/197/183 261/196/183 276/211/183 275/212/183
f 261/196/184 262/198/184 277/213/184 276/211/184
f 262/198/185 263/199/185 278/214/185 277/213/185
f 263/199/186 264/200/186 279/215/186 278/214/186
f 264/200/187 265/201/187 280/216/187 279/215/187
f 265/201/188 266/202/188 281/217/188 280/216/188
f 266/202/189 267/203/189 282/218/189 281/217/189
f 267/203/190 268/204/190 283/219/190 282/218/190
f 268/204/191 269/205/191 284/220/191 283/219/191
f 269/205/192 270/206/192 285/221/192 284/220/192
f 270/206/193 271/207/193 286/222/193 285/221/193
f 271/207/194 272/208/194 287/223/194 286/222/194
f 272/208/195 273/209/195 288/224/195 287/223/195
f 273/209/196 274/210/196 289/225/196 288/224/196
f 1/226/197 20/227/197 65/1/197 19/228/197
f 20/227/198 21/229/198 66/2/198 65/1/198
f 21/229/199 22/230/199 67/5/199 66/2/199
f 22/230/200 23/231/200 68/7/200 67/5/200
f 23/231/201 24/232/201 69/9/201 68/7/201
f 24/232/202 25/233/202 70/11/202 69/9/202
f 25/233/203 26/234/203 71/13/203 70/11/203
f 26/234/204 27/235/204 72/15/204 71/13/204
f 27/235/205 28/236/205 73/17/205 72/15/205
f 28/236/206 29/237/206 74/19/206 73/17/206
f 29/237/207 30/238/207 75/21/207 74/19/207
f 30/238/208 31/239/208 76/23/208 75/21/208
f 31/239/209 32/240/209 77/25/209 76/23/209
f 32/240/210 33/241/210 78/27/210 77/25/210
f 33/241/211 34/242/211 79/29/211 78/27/211
f 34/242/212 2/243/212 35/244/212 79/29/212
f 79/29/213 35/244/213 36/245/213 94/30/213
f 94/30/214 36/245/214 37/246/214 109/45/214
f 109/45/215 37/246/215 38/247/215 124/60/215
f 124/60/216 38/247/216 39/248/216 139/75/216
f 139/75/217 39/248/217 40/249/217 154/90/217
f 154/90/218 40/249/218 41/250/218 169/105/218
f 169/105/219 41/250/219 42/251/219 184/120/219
f 184/120/220 42/251/220 43/252/220 199/135/220
f 199/135/221 43/252/221 44/253/221 214/150/221
f 214/150/222 44/253/222 45/254/222 229/165/222
f 229/165/223 45/254/223 46/255/223 244/180/223
f 244/180/224 46/255/224 47/256/224 259/195/224
f 259/195/225 47/256/225 48/257/225 274/210/225
f 274/210/226 48/257/226 49/258/226 289/225/226
f 289/225/227 49/258/227 4/259/227 50/260/227
f 288/224/228 289/225/228 50/260/228 51/261/228
f 287/223/229 288/224/229 51/261/229 52/262/229
f 286/222/230 287/223/230 52/262/230 53/263/230
f 285/221/231 286/222/231 53/263/231 54/264/231
f 284/220/232 285/221/232 54/264/232 55/265/232
f 283/219/233 284/220/233 55/265/233 56/266/233
f 282/218/234 283/219/234 56/266/234 57/267/234
f 281/217/235 282/218/235 57/267/235 58/268/235
f 280/216/236 281/217/236 58/268/236 59/269/236
f 279/215/237 280/216/237 59/269/237 60/270/237
f 278/214/238 279/215/238 60/270/238 61/271/238
f 277/213/239 278/214/239 61/271/239 62/272/239
f 276/211/240 277/213/240 62/272/240 63/273/240
f 275/212/241 276/211/241 63/273/241 64/274/241
f 5/275/242 275/212/242 64/274/242 3/276/242
f 6/277/243 260/197/243 275/212/243 5/275/243
f 7/278/244 245/182/244 260/197/244 6/277/244
f 8/279/245 230/167/245 245/182/245 7/278/245
f 9/280/246 215/152/246 230/167/246 8/279/246
f 10/281/247 200/137/247 215/152/247 9/280/247
f 11/282/248 185/122/248 200/137/248 10/281/248
f 12/283/249 170/107/249 185/122/249 11/282/249
f 13/284/250 155/92/250 170/107/250 12/283/250
f 14/285/251 140/77/251 155/92/251 13/284/251
f 15/286/252 125/62/252 140/77/252 14/285/252
f 16/287/253 110/47/253 125/62/253 15/286/253
f 17/288/254 95/32/254 110/47/254 16/287/254
f 18/289/255 80/4/255 95/32/255 17/288/255
f 19/228/256 65/1/256 80/4/256 18/289/256
